<!-- <svg version="1.1" id="Layer_1" xmlns="http://www.w3.org/2000/svg" xmlns:xlink="http://www.w3.org/1999/xlink" x="0px" y="0px"
	 width="100px" viewBox="9.75 0 67.5 43.25" enable-background="new 9.75 0 67.5 43.25" xml:space="preserve" class="nav-icons">
<path stroke-miterlimit="10" d="M13.043,87.229"/>
<polygon  points="14.874,37.25 18.346,24 25.346,21.875 27.548,13.75 31.888,9 37.964,1.75 44.389,6.25 50.552,3.5
	55.847,8.5 58.624,15.5 65.049,18.75 65.049,24.5 69.215,26.5 72.167,34.25 74.25,42 13.659,41.75 "/>
</svg> -->
<svg version="1.1" id="Layer_1" xmlns="http://www.w3.org/2000/svg" xmlns:xlink="http://www.w3.org/1999/xlink" x="0px" y="0px"
	 width="100px" viewBox="0 0 298.667 182.991" enable-background="new 0 0 298.667 182.991" xml:space="preserve" class="nav-icons">
<path fill-rule="evenodd" clip-rule="evenodd" fill="#5B5B5B" d="M243.473,114.283c-0.173,0-0.439-0.084-0.593,0.012
	c-3.375,2.106-8.746,6.743-9.762,5.93c-4.956-3.964-9.407-8.979-12.746-14.415c-2.712-4.418-3.597-9.957-5.381-15.263
	c-11.763,8.317-11.583,8.261-15.744-4.948c-5.287-16.782-10.053-33.81-16.731-50.038c-3.331-8.094-10.417-14.643-16.364-22.646
	c-3.821,4.852-6.693,8.499-9.326,11.842c-3.663-1.779-7.812-5.238-9.439-4.304c-4.325,2.484-8.563,6.291-11.026,10.604
	c-5.264,9.218-9.377,19.093-13.98,28.689c-1.598,3.332-3.229,6.648-4.886,9.951c-3.566,7.106-7.666,12.701-15.473,17.022
	c-8.735,4.833-16.035,13.362-22.072,21.656c-5.876,8.074-13.409,13.854-20.662,20.191c-0.485,0.424-1.242,0.582-1.636,1.06
	c-11.357,13.809-22.685,27.642-34.892,42.537c89.931,0,177.957,0,267.634,0C271.275,154.332,255.484,136.107,243.473,114.283z"/>
</svg>
