<svg version="1.1" xmlns="http://www.w3.org/2000/svg" xmlns:xlink="http://www.w3.org/1999/xlink" x="0px" y="0px"
	 width="80px" viewBox="0 0 134.063 134.622" enable-background="new 0 0 134.063 134.622"
	 xml:space="preserve" class="nav-icons">
<path  d="M108.104,131.622c-9,0-18,0-27,0c0-12.797,0.062-25.594-0.023-38.39c-0.042-6.37-3.154-9.438-9.502-9.594
	c-3.986-0.099-7.977-0.052-11.965-0.015c-7.618,0.07-10.486,2.941-10.506,10.605c-0.031,12.465-0.006,24.928-0.004,37.393
	c-9,0-18,0-27,0c-3.793-2.502-5.205-5.883-5.094-10.537c0.291-12.157,0.099-24.326,0.099-36.492c0-2.928,0-5.855,0-8.996
	c-3.382,0-6.052,0.174-8.692-0.035C2.472,75.09-0.797,69.11,2.032,63.847c0.848-1.578,2.128-2.978,3.408-4.262
	C22.622,42.362,39.797,25.132,57.065,7.997c6.295-6.247,9.813-6.206,16.09,0.021c5.039,4.998,9.868,10.207,15.291,15.843
	c1.708-11.285,2.84-12.24,13.238-12.232c0.832,0,1.666-0.016,2.499,0.004c5.999,0.132,8.846,2.911,8.897,8.897
	c0.067,7.665-0.225,15.343,0.156,22.989c0.123,2.498,1.351,5.344,2.967,7.285c4.026,4.834,8.566,9.24,12.9,13.818c0,2,0,4,0,6
	c-3.484,6.752-10.25,4.445-16.006,5.214c0,15.249-0.154,30.021,0.09,44.784C113.267,125.347,112.13,129.027,108.104,131.622z"/>
</svg>
