<svg version="1.1" id="Layer_1" xmlns="http://www.w3.org/2000/svg" xmlns:xlink="http://www.w3.org/1999/xlink" x="0px" y="0px"
	 width="298.667px" height="182.991px" viewBox="0 0 298.667 182.991" enable-background="new 0 0 298.667 182.991" xml:space="preserve" class="main_logo">
<g>
	<path fill-rule="evenodd" clip-rule="evenodd" fill="#FEFEFE" stroke="#FEFEFE" stroke-miterlimit="10" d="M38.511,143.386
		c2.214-3.127,4.429-6.253,6.643-9.379c3.775-0.924,7.112-2.427,8.53-6.462c7.067-7.079,15.641-12.735,20.593-21.81
		c2.931-0.424,3.819-2.444,3.949-5.057c5.653-6.897,11.48-13.584,20.221-16.755c3.781,1.646,7.037-0.598,8.465-3.06
		c4.323-7.455,7.848-15.376,11.53-23.189c0.388-0.823-0.25-2.131-0.413-3.214c0.388-0.566,0.775-1.132,1.163-1.699
		c2.15-0.555,2.362-1.926,1.565-3.721c0.388-0.57,0.775-1.14,1.163-1.71c2.15-0.556,2.366-1.925,1.565-3.723
		c0.384-0.57,0.768-1.142,1.152-1.712c2.199-0.506,2.429-1.875,1.624-3.7c0.359-0.579,0.718-1.158,1.078-1.737
		c3.182-1.475,3.231-4.446,3.496-7.315c0.223-0.729,0.446-1.457,0.668-2.184c2.736-0.813,4.56-2.488,5.081-5.39
		c4.001-5.684,8.296-6.449,13.186-0.967c0.609,0.683,2.011,0.658,3.045,0.962c-1.013,7.877,1.706,14.02,6.953,20.162
		c11.4,13.345,16.067,29.571,17.619,46.887c0.582,6.497,1.794,12.849,0.022,19.38c-0.792,2.919,1.052,4.512,3.863,6.115
		c11.457,6.539,21.565,14.573,27.125,27.193c1.06,2.406,1.555,4.655,1.479,7.124c-0.094,3.089,0.469,6.229,2.861,8.029
		c5.529,4.159,5.807,9.755,5.291,15.768c-5.338,1.076-10.734,1.167-16.164,1.163c-48.365-0.047-96.73-0.027-145.095-0.027
		c-1.808,0-3.624,0.09-5.422-0.049c-1.953-0.151-4.616,0.158-5.092-2.232c-0.433-2.178,2.334-2.301,3.693-3.304
		c7.077-5.217,14.765-9.43,22.536-13.484c1.463-0.764,3.177-1.577,3.438-3.044c1.262-7.099,2.215-14.253,2.681-21.558
		c-10.417,12.378-20.971,24.212-32.007,35.684c-8.999,9.354-19.011,7.932-29.678,5.468c1.617-2.412,3.016-4.999,5.435-6.766
		c4.441-1.389,6-4.992,6.96-9.057c2.268-2.851,4.534-5.701,6.802-8.552C37.938,146.238,38.738,145.212,38.511,143.386z
		 M128.824,42.661c-0.971,16.916-6.218,33.722-0.882,50.821c1.039,3.328,0.314,7.194,0.501,10.807
		c0.084,1.634,0.521,3.285,2.535,3.445c1.645,0.133,2.216-1.207,2.734-2.514c1.286-3.241,3.48-5.955,1.964-10.148
		c-1.341-3.708,0.307-7.793,3.61-10.228c3.391-2.5,3.785-5.69,4.093-9.453c1.099-13.426-2.141-25.023-14.153-33.222
		C129.376,42,128.844,42.316,128.824,42.661z M153.882,121.382c-1.413-1.201-2.961-0.601-3.968,1.005
		c-1.188,1.895-2.477,3.734-3.538,5.698c-1.279,2.364-2.922,5.127-0.998,7.506c1.611,1.99,4.44,0.307,6.25-0.298
		c6.87-2.291,13.668-0.251,20.739-0.623C166.42,129.618,159.625,126.268,153.882,121.382z M103.065,140.368
		c3.204,0.041,7.18-1.923,7.305-5.656c0.209-6.226-0.729-12.492-1.273-18.733c-0.043-0.5-0.722-1.261-1.206-1.347
		c-1.331-0.238-2.096,0.787-2.373,1.869c-1.553,6.062-4.215,11.865-4.479,17.964C101.591,136.781,100.066,140.331,103.065,140.368z"
		/>
	<path fill-rule="evenodd" clip-rule="evenodd" fill="#E3E4E5" d="M152.814,21.564c-1.013,7.877,1.706,14.02,6.953,20.162
		c11.4,13.345,16.067,29.571,17.619,46.887c0.582,6.497,1.794,12.849,0.022,19.38c-0.792,2.919,1.052,4.512,3.863,6.115
		c11.457,6.539,21.565,14.573,27.125,27.193c1.06,2.406,1.555,4.655,1.479,7.124c-0.094,3.089,0.469,6.229,2.861,8.029
		c5.529,4.159,5.807,9.755,5.291,15.768c22.33,0.507,44.68-0.808,66.998,0.716c1.888,0.129,2.166-1.195,2.5-2.53
		c-1.191-1.986-3.324-2.712-5.149-3.851c-1.854,0.251-3.052-0.393-3.249-2.392c-2.354-2.284-4.705-4.568-7.059-6.853
		c-1.842-0.281-2.497-1.398-2.229-3.165c-0.092-1.481-0.42-2.843-1.87-3.625c-2.4-0.303-2.475-2.062-2.436-3.89
		c-2.878-5.347-7.109-9.357-12.278-12.443c-4.038-0.749-4.887-3.776-5.154-7.218c-0.267-0.744-0.534-1.489-0.801-2.233
		c-2.869-0.949-4.527-2.399-2.264-5.473c-0.202-0.891-0.403-1.781-0.604-2.673c-1.305-0.243-1.95-1.049-2.012-2.354
		c-0.435-0.034-0.948-0.237-1.292-0.077c-3.621,1.686-6.397,8.199-9.46,6.317c-5.508-3.384-10.794-8.219-13.442-14.679
		c-1.619-3.947-2.507-8.19-3.821-12.27c-1.188-3.688-2.639-4.754-5.911-1.316c-5.714,6.005-7.296,5.458-9.997-2.628
		c-6.338-18.979-12.392-38.058-19.096-56.906c-3.085-8.675-10.616-14.487-16.282-21.469c-1.623-1.999-3.223-0.188-4.289,1.372
		C156.796,15.56,154.815,18.569,152.814,21.564z"/>
	<path fill-rule="evenodd" clip-rule="evenodd" fill="#E3E3E4" stroke="#E3E3E4" stroke-miterlimit="10" d="M287.524,170.408
		c-0.334,1.335-0.612,2.659-2.5,2.53c-22.318-1.523-44.667-0.209-66.998-0.716c-5.338,1.076-10.734,1.167-16.164,1.163
		c-48.365-0.047-96.73-0.027-145.095-0.027c-1.808,0-3.624,0.09-5.422-0.049c-1.953-0.151-4.616,0.158-5.092-2.232
		c-0.433-2.178,2.334-2.301,3.693-3.304c7.077-5.217,14.765-9.43,22.536-13.484c1.463-0.764,3.177-1.577,3.438-3.044
		c1.262-7.099,2.215-14.253,2.681-21.558c-10.417,12.378-20.971,24.212-32.007,35.684c-8.999,9.354-19.011,7.932-29.678,5.468
		c-2.169,0.189-2.652,1.804-2.177,3.37c0.468,1.544,2.199,1.199,3.528,1.198c9.951-0.011,19.902-0.029,29.853-0.037
		c78.271-0.065,156.541-0.128,234.812-0.203c1.576-0.002,3.326,0.261,4.693-0.314C290.816,173.509,290.622,171.825,287.524,170.408z
		"/>
	<path fill-rule="evenodd" clip-rule="evenodd" fill="#D0CFCF" d="M242.419,114.24c0.062,1.305,0.708,2.11,2.012,2.354
		C244.556,115.13,244.416,113.893,242.419,114.24z"/>
	<path fill-rule="evenodd" clip-rule="evenodd" fill="#D0CFCF" d="M36.113,146.465c1.825-0.227,2.625-1.253,2.397-3.079
		C37.037,143.888,36.05,144.767,36.113,146.465z"/>
	<path fill-rule="evenodd" clip-rule="evenodd" fill="#EAEAEA" d="M129.226,42.169c0.151-0.169-0.382,0.147-0.402,0.492
		c-0.971,16.916-6.218,33.722-0.882,50.821c1.039,3.328,0.314,7.194,0.501,10.807c0.084,1.634,0.521,3.285,2.535,3.445
		c1.645,0.133,2.216-1.207,2.734-2.514c1.286-3.241,3.48-5.955,1.964-10.148c-1.341-3.708,0.307-7.793,3.61-10.228
		c3.391-2.5,3.785-5.69,4.093-9.453C144.478,61.965,141.238,50.368,129.226,42.169z"/>
	<path fill-rule="evenodd" clip-rule="evenodd" fill="#EAEAEA" d="M172.368,134.67c-5.947-5.052-12.742-8.402-18.486-13.288
		c-1.413-1.201-2.961-0.601-3.968,1.005c-1.188,1.895-2.477,3.734-3.538,5.698c-1.279,2.364-2.922,5.127-0.998,7.506
		c1.611,1.99,4.44,0.307,6.25-0.298C158.499,133.002,165.297,135.042,172.368,134.67z"/>
	<path fill-rule="evenodd" clip-rule="evenodd" fill="#EAEAEA" d="M101.04,134.465c0.551,2.316-0.974,5.866,2.025,5.903
		c3.204,0.041,7.18-1.923,7.305-5.656c0.209-6.226-0.729-12.492-1.273-18.733c-0.043-0.5-0.722-1.261-1.206-1.347
		c-1.331-0.238-2.096,0.787-2.373,1.869C103.966,122.563,101.303,128.366,101.04,134.465z"/>
</g>
</svg>
