<?xml version="1.0" encoding="utf-8"?>
<!-- Generator: Adobe Illustrator 16.0.0, SVG Export Plug-In . SVG Version: 6.00 Build 0)  -->
<!DOCTYPE svg PUBLIC "-//W3C//DTD SVG 1.1//EN" "http://www.w3.org/Graphics/SVG/1.1/DTD/svg11.dtd">
<svg version="1.1" id="Layer_1" xmlns="http://www.w3.org/2000/svg" xmlns:xlink="http://www.w3.org/1999/xlink" x="0px" y="0px"
	 width="118.334px" height="67.333px" viewBox="0 0 118.334 67.333" enable-background="new 0 0 118.334 67.333"
	 xml:space="preserve">
<polygon fill="#5CAA8E" points="2.167,23.802 12.661,37.234 12.502,47.65 18.067,54.012 29.992,66.333 37.146,53.614 37.941,45.664 
	45.495,41.292 48.276,35.329 46.028,27.617 48.875,24.25 27.5,17.5 "/>
<rect x="45.604" y="10.868" fill="none" width="66.744" height="11.129"/>
<text transform="matrix(1 0 0 1 45.6045 16.0342)" fill="#FFFFFF" font-family="'Polaris'" font-size="7">breaking the ice</text>
<path fill="none" stroke="#FFFFFF" stroke-miterlimit="10" d="M56.874,40.033"/>
<path fill="none" stroke="#FFFFFF" stroke-miterlimit="10" d="M12.558,40.033"/>
<polygon fill="#FFFFFF" stroke="#FFFFFF" stroke-miterlimit="10" points="3.079,23.396 8.875,16.244 14.441,11.474 20.006,7.102 
	23.98,2.729 31.135,1.934 35.004,7.102 39.881,12.666 41.47,18.231 47.604,23.802 "/>
</svg>
